<?xml version="1.0" standalone="no"?>
<!DOCTYPE svg PUBLIC "-//W3C//DTD SVG 20010904//EN"
 "http://www.w3.org/TR/2001/REC-SVG-20010904/DTD/svg10.dtd">
<svg version="1.0" xmlns="http://www.w3.org/2000/svg"
 width="1280.000000pt" height="1184.000000pt" viewBox="0 0 1280.000000 1184.000000"
 preserveAspectRatio="xMidYMid meet">
<g transform="translate(0.000000,1184.000000) scale(0.100000,-0.100000)"
fill="#000000" stroke="none">
<path d="M7528 11633 c-175 -210 -358 -439 -871 -1090 -530 -672 -882 -1092
-1147 -1369 -94 -97 -116 -106 -345 -135 -88 -11 -187 -26 -220 -35 -68 -16
-132 -57 -155 -96 -13 -25 -13 -29 6 -55 29 -39 57 -51 184 -74 62 -11 125
-26 140 -34 40 -21 71 -64 68 -94 -4 -32 -33 -46 -211 -107 -159 -55 -235 -93
-294 -147 -63 -57 -112 -164 -84 -182 5 -3 32 -10 60 -15 85 -16 148 3 328 96
90 46 175 84 191 84 49 0 126 -63 214 -177 83 -106 85 -108 129 -111 39 -2 50
2 93 38 71 59 83 64 116 50 38 -16 42 -29 20 -77 -47 -106 -152 -233 -267
-323 -25 -20 -39 -48 -73 -145 -45 -130 -75 -225 -84 -266 -4 -16 -22 -37 -48
-54 -67 -43 -94 -72 -183 -195 -125 -174 -225 -263 -425 -378 -150 -85 -356
-178 -634 -283 -245 -93 -289 -129 -411 -335 -101 -168 -135 -203 -243 -248
-120 -49 -171 -85 -245 -169 -179 -205 -208 -224 -315 -214 -76 7 -172 43
-172 65 0 27 100 167 227 318 223 266 287 367 340 541 24 80 27 103 28 263 1
96 5 189 9 205 13 45 43 102 96 180 86 127 100 169 74 230 -15 36 -15 49 1
178 24 192 17 367 -20 493 l-27 92 22 42 c36 70 37 157 5 303 l-28 126 37 54
c22 32 53 101 76 168 21 63 52 144 69 181 61 133 106 299 131 481 20 153 5
576 -22 602 -8 9 -178 -15 -214 -30 -26 -11 -32 -20 -43 -71 -9 -40 -30 -85
-66 -140 -114 -174 -127 -230 -80 -346 32 -78 32 -98 1 -98 -29 0 -35 -19 -29
-87 7 -64 -12 -101 -160 -321 -153 -226 -168 -264 -177 -462 -5 -123 -11 -164
-27 -201 -20 -45 -20 -46 -1 -95 10 -27 43 -134 73 -238 58 -196 102 -317 137
-374 14 -22 17 -37 10 -44 -5 -5 -56 -14 -113 -19 -132 -11 -293 -34 -434 -62
l-110 -22 -7 -75 c-15 -151 -74 -287 -149 -342 -55 -41 -161 -42 -218 -1 -40
29 -70 100 -83 196 -11 84 -13 87 -37 87 -44 -1 -74 -25 -126 -101 -62 -91
-101 -119 -166 -119 -26 0 -55 3 -64 6 -9 4 -36 46 -60 95 -48 95 -72 119
-122 119 -28 0 -33 -4 -38 -33 -10 -50 15 -99 68 -136 96 -66 120 -127 76
-198 -27 -44 -76 -68 -180 -88 -129 -25 -158 -41 -130 -70 5 -6 17 -39 26 -75
33 -130 60 -140 145 -49 66 70 86 73 113 16 23 -49 74 -81 172 -108 195 -54
218 -62 258 -100 l39 -38 -24 -42 c-37 -67 -179 -238 -264 -319 -149 -142
-330 -279 -574 -432 l-135 -85 -190 -9 c-233 -11 -592 -12 -661 -1 l-51 7 -27
-74 c-29 -82 -31 -104 -15 -139 13 -28 10 -28 334 -52 524 -38 1165 -42 2360
-15 237 5 835 7 1330 4 l900 -5 26 -77 c34 -101 59 -158 102 -224 86 -135 251
-270 407 -333 46 -19 75 -36 78 -48 13 -51 77 -162 141 -247 79 -104 126 -180
136 -222 5 -19 20 -33 51 -47 67 -32 157 -89 304 -194 301 -215 400 -252 760
-287 107 -11 227 -25 265 -31 115 -19 262 -72 488 -178 207 -96 267 -121 267
-107 0 13 -33 72 -57 100 -41 50 -124 111 -248 186 -203 122 -257 173 -286
269 -20 67 -3 74 77 31 144 -76 289 -201 505 -433 174 -188 262 -268 374 -342
251 -165 567 -273 1012 -346 186 -30 431 -59 448 -53 8 3 17 14 20 24 11 33
46 70 68 70 11 0 48 -17 81 -39 73 -47 120 -62 294 -96 154 -30 201 -44 297
-92 135 -68 245 -152 401 -308 255 -254 388 -484 414 -718 35 -299 -87 -604
-279 -701 -122 -62 -320 -89 -495 -67 -140 18 -267 51 -540 140 -133 44 -299
94 -371 111 -71 17 -236 60 -366 96 -346 93 -503 130 -699 164 -112 19 -213
42 -280 66 l-105 37 -305 8 c-294 7 -340 12 -442 45 -43 14 -49 14 -80 -2 -70
-36 -128 -44 -333 -44 -302 0 -514 -33 -970 -151 -126 -33 -303 -77 -391 -99
-150 -37 -172 -46 -310 -120 -82 -45 -291 -152 -465 -240 -313 -157 -315 -159
-335 -202 -11 -24 -71 -97 -141 -171 -122 -129 -159 -183 -170 -251 -7 -44 3
-86 21 -86 28 0 173 81 228 127 31 26 75 71 98 100 97 124 409 325 691 447
164 71 368 139 684 230 1066 305 1650 319 2456 60 79 -25 341 -120 582 -210
553 -208 781 -275 1041 -305 119 -13 427 -13 547 1 213 25 425 80 539 141 180
96 324 288 398 534 44 143 56 234 49 382 -11 282 -83 419 -367 704 -108 108
-122 119 -240 179 -221 112 -264 151 -370 339 -29 52 -74 115 -99 140 -41 42
-45 44 -49 24 -2 -12 4 -33 13 -47 17 -26 13 -46 -9 -46 -8 0 -40 18 -72 39
-125 83 -262 117 -634 156 -376 39 -500 64 -624 127 -64 32 -145 102 -176 153
-16 26 -31 35 -82 48 -35 9 -85 18 -113 19 l-50 3 -38 75 c-182 359 -368 573
-644 738 -132 79 -274 136 -683 272 -212 70 -402 135 -422 144 -25 11 -48 33
-71 69 -58 90 -121 146 -332 294 -134 95 -186 142 -234 214 -70 104 -71 103
132 95 364 -15 1325 -25 2380 -26 l1098 0 50 -40 c79 -62 165 -85 324 -85 95
0 145 5 185 17 68 21 130 61 156 99 24 36 37 36 63 0 11 -16 51 -50 89 -75
l67 -46 54 10 c80 15 244 12 315 -5 33 -9 99 -29 146 -45 58 -20 120 -32 195
-38 185 -16 314 -78 605 -291 85 -63 189 -130 230 -150 66 -32 84 -36 150 -36
64 0 83 4 128 29 29 17 58 38 63 48 13 23 2 61 -33 125 -41 73 -37 128 12 160
78 50 74 43 56 96 -19 57 -21 140 -4 236 l12 70 -32 50 -31 51 24 36 c52 76
40 169 -45 382 -46 113 -50 129 -50 206 0 59 -4 87 -14 95 -7 6 -43 14 -78 18
-87 8 -117 -9 -253 -144 -64 -64 -134 -122 -167 -141 -151 -84 -339 -141 -668
-202 -96 -18 -183 -40 -192 -48 -9 -7 -19 -31 -23 -53 -7 -43 -39 -89 -60 -89
-8 0 -21 12 -29 28 -22 42 -46 59 -110 77 -56 16 -66 16 -150 1 -50 -9 -111
-17 -136 -19 l-45 -2 -12 -50 c-14 -57 -37 -79 -73 -70 -36 9 -50 32 -50 85 0
25 -6 54 -12 63 -31 41 -295 62 -406 33 -105 -28 -187 -97 -215 -180 -16 -49
-34 -56 -47 -21 -6 15 -20 41 -31 56 l-20 29 -947 2 -947 3 1 41 c0 32 12 59
48 115 68 105 64 134 -37 339 -43 85 -77 159 -77 166 0 6 -120 101 -267 210
-327 243 -467 359 -597 495 -86 89 -111 109 -179 141 -102 49 -215 158 -240
232 -20 60 -22 155 -4 180 13 18 16 18 66 1 70 -23 170 -92 321 -220 207 -177
298 -227 460 -256 97 -17 346 -15 560 6 238 22 451 29 561 17 96 -10 96 -11
210 -83 183 -117 339 -184 484 -208 58 -10 84 -9 150 4 157 30 207 23 515 -70
177 -53 342 -59 409 -16 24 15 -2 82 -54 139 -55 61 -139 106 -315 167 -169
59 -258 105 -310 161 -58 63 -53 69 80 101 30 8 35 13 38 43 2 18 -2 54 -8 79
-27 111 -95 160 -234 170 l-81 6 -20 61 c-26 79 -39 94 -84 94 -20 0 -54 5
-76 10 -22 5 -166 14 -319 20 -298 11 -394 24 -483 66 -52 25 -133 104 -133
130 0 23 62 47 136 52 59 4 98 -2 225 -33 145 -35 160 -37 259 -31 140 8 187
20 515 131 295 100 404 125 539 125 102 0 165 -16 291 -75 212 -99 260 -105
450 -55 102 27 131 31 192 25 106 -9 199 -36 378 -110 278 -116 380 -145 506
-145 69 0 69 0 69 28 0 101 -62 173 -192 221 -45 17 -112 43 -148 56 -73 28
-130 73 -158 125 -16 30 -25 36 -64 41 -60 9 -94 28 -175 97 -98 85 -108 89
-251 90 -161 2 -315 28 -605 101 -384 98 -444 104 -682 75 -171 -21 -284 -15
-359 19 -66 31 -71 49 -23 95 58 56 101 66 287 62 390 -9 425 -5 492 62 53 53
50 70 -19 101 -357 160 -1010 147 -1517 -30 -158 -55 -236 -99 -389 -218 -192
-149 -218 -167 -349 -229 -62 -29 -178 -94 -258 -145 -329 -208 -600 -311
-817 -311 -107 1 -159 12 -240 52 -82 40 -223 183 -207 210 3 4 40 8 84 8 172
0 382 33 510 81 155 58 301 170 369 284 37 61 81 197 81 250 0 49 9 64 49 84
60 31 137 50 328 82 267 44 341 74 408 168 l35 48 87 5 c162 10 253 65 391
236 137 169 153 176 229 96 61 -63 82 -60 158 20 64 66 129 178 160 276 10 30
21 60 26 66 5 6 40 16 78 23 188 34 309 148 410 386 61 145 63 242 5 296 -24
22 -26 23 -38 7 -7 -10 -35 -82 -61 -160 -72 -216 -131 -334 -199 -396 -59
-53 -126 -84 -208 -96 -62 -9 -92 -46 -136 -164 -18 -49 -46 -104 -61 -123
l-29 -34 -65 18 c-36 9 -82 17 -101 17 -39 0 -106 24 -106 37 2 31 79 118 145
163 24 16 111 66 195 110 83 43 169 93 191 111 l39 31 0 104 c0 155 -25 203
-107 204 -48 0 -83 -28 -83 -67 0 -13 18 -54 40 -90 22 -37 40 -72 40 -79 0
-33 -106 -95 -280 -164 -229 -91 -258 -113 -316 -238 -81 -174 -104 -192 -252
-192 -114 0 -226 -25 -303 -67 -66 -35 -143 -113 -174 -173 l-24 -48 -143 -48
c-291 -96 -441 -173 -565 -288 -96 -90 -137 -150 -170 -256 -24 -74 -34 -91
-84 -140 -113 -111 -257 -173 -390 -168 -69 3 -74 5 -77 26 -5 37 23 70 70 82
67 18 88 36 88 73 0 37 -47 89 -131 145 -62 42 -107 95 -115 136 -5 30 1 46
44 118 133 221 360 661 587 1138 272 572 535 1089 615 1209 89 134 232 291
265 291 29 0 92 -55 118 -103 16 -32 21 -59 21 -112 0 -80 -12 -118 -100 -337
-80 -197 -98 -268 -91 -373 12 -202 113 -316 279 -317 189 0 390 153 460 351
15 43 22 100 29 246 11 230 21 285 61 330 48 56 99 63 213 28 82 -25 83 -29
36 -119 -43 -80 -53 -143 -31 -185 15 -27 76 -56 150 -69 109 -20 191 5 216
65 31 75 9 82 -109 35 -42 -16 -90 -30 -107 -30 -39 0 -90 28 -90 50 0 8 20
40 44 71 56 71 76 110 76 147 0 26 -10 35 -97 88 -92 55 -102 59 -171 63 -90
4 -148 -16 -191 -65 -65 -73 -88 -144 -132 -394 -33 -195 -52 -271 -86 -347
-46 -107 -147 -183 -243 -183 -41 0 -50 5 -92 48 -62 63 -80 104 -86 187 -6
90 12 160 84 335 97 234 117 297 117 375 1 120 -50 190 -211 286 -48 29 -96
59 -108 66 -20 12 -30 2 -186 -184z m767 -2176 c112 -24 63 -66 -75 -67 -47 0
-105 -5 -129 -11 -53 -12 -60 -6 -41 29 33 58 118 75 245 49z m-2383 -2702
c151 -32 281 -119 513 -346 100 -97 160 -149 174 -149 32 0 129 -36 168 -62
35 -24 93 -101 93 -125 0 -25 -70 -46 -151 -45 -67 0 -102 9 -287 70 -117 39
-247 76 -292 83 -110 16 -430 6 -530 -16 -298 -67 -495 -215 -584 -437 -14
-37 -31 -90 -36 -118 -13 -68 -15 -70 -58 -70 -56 1 -102 27 -188 108 l-78 73
33 132 c19 73 37 137 42 143 5 6 35 14 67 18 146 17 274 113 506 381 226 263
313 335 436 361 73 16 93 16 172 -1z m-3028 -27 c50 -79 66 -268 32 -388 -25
-86 -93 -218 -158 -305 -73 -97 -247 -269 -411 -405 l-139 -115 -266 -6 c-147
-3 -313 -12 -370 -19 -57 -7 -106 -9 -110 -6 -14 15 46 105 118 176 41 42 145
128 231 192 167 125 240 198 290 291 27 50 38 61 84 82 142 62 282 191 391
357 38 58 77 120 86 137 l17 31 95 0 c88 0 97 -2 110 -22z m1874 -380 c7 -7
12 -24 12 -39 0 -20 -10 -33 -42 -54 -92 -61 -193 -152 -364 -331 -211 -220
-315 -307 -442 -371 -83 -42 -100 -47 -164 -47 -93 -1 -102 11 -65 85 15 30
54 87 87 128 80 97 102 141 108 219 4 58 8 66 36 83 46 28 142 63 331 119 193
58 353 131 404 184 36 37 76 47 99 24z m-1266 -684 c9 -19 9 -36 -1 -72 -15
-58 -43 -89 -92 -102 -39 -11 -113 0 -131 18 -29 29 61 129 143 160 69 27 67
27 81 -4z m921 -28 c71 -30 95 -101 46 -138 -26 -19 -29 -20 -75 -5 -27 9 -67
17 -89 19 -35 3 -40 6 -43 29 -4 31 31 77 72 95 40 17 50 17 89 0z m5537 -285
c0 -6 -4 -13 -10 -16 -5 -3 -10 1 -10 9 0 9 5 16 10 16 6 0 10 -4 10 -9z
m-2954 -970 c42 -26 59 -75 44 -131 -14 -52 -34 -60 -68 -27 -24 25 -66 152
-55 170 8 13 47 7 79 -12z m193 -299 c49 -33 82 -79 104 -146 22 -64 22 -86 0
-86 -28 0 -114 54 -156 97 -43 46 -57 85 -45 131 11 41 39 42 97 4z"/>
</g>
</svg>
